<svg xmlns="http://www.w3.org/2000/svg" viewBox="0 0 1000 856.726">
  <defs>
    <linearGradient id="alipay-sweep" x1="238.56" y1="823.2" x2="379.48" y2="579.121" gradientUnits="userSpaceOnUse">
      <stop offset="0" stop-color="#0079ff" stop-opacity=".8"></stop>
      <stop offset=".04" stop-color="#0076ff" stop-opacity=".808"></stop>
      <stop offset=".262" stop-color="#0068ff" stop-opacity=".852"></stop>
      <stop offset=".535" stop-color="#005fff" stop-opacity=".907"></stop>
      <stop offset="1" stop-color="#005dff"></stop>
    </linearGradient>
    <linearGradient id="alipay-tail" x1="531.747" y1="693.035" x2="1000" y2="693.035" gradientUnits="userSpaceOnUse">
      <stop offset=".117" stop-color="#0079ff"></stop>
      <stop offset="1" stop-color="#0079ff" stop-opacity=".5"></stop>
    </linearGradient>
    <linearGradient id="alipay-wave" x1="0" y1="652.49" x2="902.355" y2="652.49" gradientUnits="userSpaceOnUse">
      <stop offset="0" stop-color="#0079ff" stop-opacity=".65"></stop>
      <stop offset=".46" stop-color="#0079ff"></stop>
      <stop offset="1" stop-color="#005dff" stop-opacity=".72"></stop>
    </linearGradient>
  </defs>
  <path fill="#0079ff" d="M828.004 134.965H556.018V7.406A7.46 7.46 0 0 0 548.531 0C438.112 0 413.916 27.214 413.916 62.749v72.216H155.79c-15.4 0-22.158 35.711-22.153 60.893 0 4.177 3.222 7.628 7.4 7.628h272.879v90.316H233.091c-15.454 0-22.201 36.814-22.153 61.15.008 4.078 3.321 7.371 7.4 7.371h363.206c-7.386 64.811-25.088 122.288-49.797 172.001 44.609 21.031 89.239 43.609 136.221 64.398 54.838-88.184 88.381-189.246 89.011-289.973.052-8.232-6.581-14.947-14.814-14.947H556.018v-90.316H813.25c15.399 0 22.158-34.26 22.153-60.893 0-4.177-3.222-7.628-7.399-7.628"></path>
  <path fill="url(#alipay-sweep)" d="M60.367 652.863c-.25 147.44 303.772 206.899 445.206 115.469a386 386 0 0 0 77.979-63.695c-4.788-3.207-28.931-20.783-56.665-38.785-20.3-13.176-43.065-26.293-58.862-35.61C298.69 825.649 60.367 773.87 60.367 652.863"></path>
  <path fill="url(#alipay-tail)" d="M910.764 851.745c68.185 0 86.071-85.135 89.21-152.1.614-13.094-9.615-24.122-22.716-24.532-186.635-5.837-316.153-79.802-445.511-140.789 142.769 122.482 203.969 317.421 379.017 317.421"></path>
  <path fill="url(#alipay-wave)" d="M213.966 544.243c87.896 0 172.161 37.344 254.059 85.999 39.008 23.175 77.48 48.912 115.55 74.41 108.47 72.648 213.68 143.296 318.78 146.918-168.635-6.139-230.142-196.738-370.592-317.238l-.016-.008c-93.406-44.036-186.731-81.319-301.425-81.319C95.064 453.005 0 541.047 0 652.857v.006c.004 110.417 97.255 198.864 230.323 198.864 104.508 0 197.533-31.557 275.082-83.285-141.739 91.078-445.03 31.725-445.038-115.579v-.006c0-63.122 69.393-108.614 153.599-108.614"></path>
</svg>