<svg width="300" height="300" viewBox="0 0 300 300" fill="none" xmlns="http://www.w3.org/2000/svg">
<path fill-rule="evenodd" clip-rule="evenodd" d="M70.0122 48L83.0924 48.2125C119.966 48.8116 147.152 50.4138 166.358 52.8057C179.834 54.484 193.389 59.2647 204.243 66.7931C217.544 76.0182 226.257 88.8956 228.588 104.871L228.618 105.078L228.639 105.286C230.431 122.997 225.746 134.219 215.074 145.932C214.839 146.19 214.224 146.852 213.503 147.626L213.318 147.824L213.384 147.897C223.461 159.087 228.525 172.629 228.684 190.055C228.684 215.949 204.861 241.615 175.035 245.414C167.96 246.315 158.998 247.007 145.125 247.798C147.343 247.672 131.411 248.513 114.49 249.446L112.766 249.541C101.549 250.16 90.1546 250.806 83.5375 251.225L71.3075 252L73.6265 239.958L75.8842 228.235C81.6586 199.034 94.7287 182.557 119.127 170.514C126.823 166.715 135.072 164.728 149.057 162.538C149.755 162.429 150.481 162.317 151.342 162.184C151.882 162.102 152.476 162.011 153.599 161.839C171.253 159.135 178.331 157.078 181.588 153.411C183.899 154.195 186.464 155.899 189.283 158.524C192.101 161.149 194.262 163.648 195.765 166.02C191.378 170.959 185.294 174.176 177.318 176.494C176.797 176.646 176.28 176.791 175.763 176.932L174.986 177.139C170.312 178.363 165.379 179.237 156.467 180.601C155.341 180.774 154.753 180.864 154.22 180.946C153.375 181.075 152.666 181.185 151.989 181.291C139.836 183.194 132.959 184.85 127.518 187.536C108.31 197.018 99.0948 208.635 94.4991 231.873L94.5633 231.553L94.9014 231.534C113.872 230.444 141.094 228.993 144.007 228.847L144.191 228.838C144.233 228.836 144.257 228.835 144.261 228.835L144.254 228.835L144.917 228.798C157.589 228.068 165.889 227.426 172.212 226.639L172.64 226.585C193.323 223.951 209.721 206.869 209.721 190.901C209.721 175.02 205.299 166.056 194.982 156.422C194.697 156.175 194.157 155.705 193.362 155.013C187.479 149.574 174.348 144.597 160.288 143.227C150.915 142.314 150.672 142.291 159.56 143.159C127.942 140.22 115.818 135.92 103.421 123.423C93.1697 113.09 84.5011 96.3297 80.0258 80.3783L80.0628 80.5058L73.8788 60.5067L70.0122 48ZM95.881 67.4551L98.2158 75.0079L98.2865 75.2476C101.956 88.3274 109.173 102.281 116.881 110.051C125.566 118.805 133.71 121.693 161.273 124.256C175.085 125.479 188.596 129.462 198.407 135.355L198.787 135.586L198.916 135.45C199.838 134.458 200.688 133.547 200.994 133.214L201.059 133.144C208.38 125.108 210.956 118.937 209.769 107.198L209.79 107.418L209.729 107.022C206.585 87.7673 188.013 74.8454 164.73 71.7334L164.016 71.6412C147.932 69.6382 125.702 68.1928 96.2499 67.4649L95.881 67.4551Z" fill="#808080"/>
</svg>
