<svg xmlns="http://www.w3.org/2000/svg" viewBox="0 0 1592 1592">
  <path fill="#ff0000" d="M0 0h1592v1592H0z"/>
  <g fill="#fff">
    <path transform="matrix(1 0 0 -1 0 1592)" d="M1433.7 872.41c-127.89-175.95-255.77-245.06-383.54-272.65v-29.37c1.06-126.3-1.29-251.89-.23-378.19-15.8 0-28.06-.59-43.85-.59-4.01 49.88-14.61 91.98-30.53 129.37-16.62 35.49-44.43 29.48-63.76-.12-19.92-30.31-33.83-75.24-43.97-129.25H824.8c5.54 39.03 6.37 89.03 6.37 140.69-39.6-17.69-90.17-68.52-147.81-140.69h-32.53c72.37 122.88 144.62 245.88 216.99 368.76l7.43 30.78C622.07 640.8 435.37 760.02 334.84 878.07c-61.29 81.72-60.94 156.73 6.36 224.42 76.97 76.06 183.52 133.02 308.1 178.31 244.69 95.28 629.64 140.21 821.05 33.02 118.7-57.2 65.42-287.51-36.65-441.41z"/>
    <path transform="matrix(1 0 0 -1 0 1592)" d="M675.59 457.65c9.19-57.31 34.88-92.92 119.51-50.82l-22.04-56.61c-69.66-10.97-115.39 34.56-97.47 107.43z"/>
    <path transform="matrix(1 0 0 -1 0 1592)" d="M806.53 374.28c3.42 6.96 10.97 11.56 14.5 4.72 6.96-12.15 11.32-26.77 10.14-46.7-33-14.63-73.55-52.36-119.4-106.26z"/>
    <path transform="matrix(1 0 0 -1 0 1592)" d="M955.28 385.72c44.91-2.6 67.66-78.07 72.72-193.76-7.07-.23-14.02-.35-21.92-.35-4.01 49.88-14.61 91.98-30.53 129.37-16.62 35.49-44.43 29.48-63.76-.12-17.45-26.54-30.29-64.27-40.08-109.56 12.62 91.16 51.28 172.3 83.57 174.42z"/>
    <path transform="matrix(1 0 0 -1 0 1592)" d="M1340.89 1236.77c-70.69 0-127.84 22.98-127.84 51.42s57.15 51.43 127.84 51.43 127.85-22.99 127.85-51.43-57.15-51.42-127.85-51.42z"/>
    <path transform="matrix(1 0 0 -1 0 1592)" d="M311.03 963.92 272.25 987.04c32.88-164.16-20.51-231.38-140.38-281.03-62.35-24.06-74.84-16.74-99.71.12C9.64 722.17.33 754.48 16.6 803.54c31.94 95.29 83.33 131.49 106.9 271.59 4.72 40.57 45.26 68.16 83.8 49.29l105.97-56.13c10.13-24.06 17.32-49.18 19.8-76.07 2.35-31.13-6.84-36.32-22.04-28.3z"/>
    <path transform="matrix(1 0 0 -1 0 1592)" d="M181.61 1059.33 272.25 987.04c32.88-164.16-20.51-231.38-140.38-281.03-35.71-13.8-55.04-17.22-69.78-14.5 60.59 93.75 95.24 223.59 119.52 367.82z"/>
  </g>
  <path fill="#111" transform="matrix(1 0 0 -1 0 1592)" d="M1449.85 898c12.37 20.76 23.8 42.45 34.06 64.74-71.43-53.77-175.03-79.48-280.99-74.65-130.01 5.9-263.31 57.79-345.59 149.66-26.87 30.18-53.15 9.9-30.41-21 126.59-151.18 395.8-218.87 622.93-118.75z"/>
  <path fill="#111" transform="matrix(1 0 0 -1 0 1592)" d="M855.63 1146.71c-24.22 0-43.79 17.92-43.79 40.1 0 22.17 19.57 40.09 43.79 40.09 24.21 0 43.78-17.92 43.78-40.09 0-22.18-19.57-40.1-43.78-40.1z"/>
  <path fill="#94261e" transform="matrix(1 0 0 -1 0 1592)" d="m867.82 560.37 7.43 30.78c68.83-7.08 129.77-6.72 174.91 8.61v-29.37c-39.48-25.94-107.96-21.1-182.34-10.02z"/>
</svg>
