<svg height="636" viewBox="0 -.00083687 117.842 30.00083687" width="2500" xmlns="http://www.w3.org/2000/svg"><path d="m55.872 7.656.289-2.077h-3.811l-.294 2.077-11.76-.009.291-2.068h-3.809l-.291 2.068-2.902-.003-.268 2.011h2.886l-.315 2.24h3.81l.318-2.24h11.759l-.314 2.24h3.81l.315-2.24h3.556l.251-1.996zm27.447-2.074-.001.01-17.775-.01a3.85 3.85 0 0 0 -3.658 2.773l-.153 1.114-.72 5.216h-.025l-.25 1.998h.001l-.001.012h3.252l.002-.012 7.007.004-.211 1.586h-10.25l-.255 1.998 4.589.002-3.251 3.338c-.316.371-1.14 1.217-1.547 1.49a1.58 1.58 0 0 1 -.467.137l-.288 2.016 1.868-.022c1.207-.282 2.22-1.233 3.083-2.191l4.459-4.767h1.79l-.93 6.977h3.811l.931-6.977 1.665.002c.011.014 4.076 6.338 5.413 6.848.242.092.638.108.975.108h1.274l.271-1.995s-.555.037-.855-.135c-.468-.227-1.239-1.49-1.286-1.566l-2.264-3.26h5.078l.27-2-10.276-.002.21-1.584 6.958.004a3.854 3.854 0 0 0 3.658-2.773l.152-1.116.721-5.216h.024l.252-1.996h-.002l.002-.013h-3.251zm-12.054 9.104h-7l.216-1.563.16-1.16h6.987zm.582-4.373h-6.979l.169-1.217a1.614 1.614 0 0 1 1.607-1.507h5.565zm10.425 2.866a1.614 1.614 0 0 1 -1.606 1.506h-5.592l.362-2.723h7.005zm.555-4.026-.159 1.161h-7.012l.364-2.724h7.024zm-35.427 2.742h-3.76l.602 2.803h-11.596l-.264 1.995h2.896l-.854 6.303c-.276 2.514 1.376 4.094 3.771 4.244 13.282 0 17.307.005 18.576.01l.269-1.996h-17.047c-1.104-.133-1.87-1.074-1.793-2.26l.839-6.301h19.207l.258-1.997h-10.503zm48.502-6.318h-3.632a457.88 457.88 0 0 1 -.529 4.207l-3.158-.001a42.993 42.993 0 0 1 -.275 2.113h3.16c-.66 5.105-1.479 11.4-1.486 11.478-.07.958.035 1.716.32 2.269.284.556.722.957 1.316 1.209.594.251 1.39.378 2.391.378.319 0 2.417.028 3.521.019l.291-2.155-1.865.005c-.404 0-.789-.09-1.146-.271-.361-.179-.614-.476-.771-.886-.153-.413-.198-1.029-.131-1.856 0 0 .663-5.509 1.229-10.189h3.594l.232-2.11-3.572-.001c.255-2.085.453-3.737.511-4.209zm17.801 4.205-6.147 14.567-3.926-14.567h-3.646l4.911 17.468h2.984c1.086-.023 1.838-.707 2.33-1.428l7.633-16.04z" fill="#222"/><path d="m29.054 20.762v-9.161h-.001a2 2 0 0 0 -1.414-1.892l.001-.002-2.998-.854-.003.011-4.301 9.101-4.493-11.611.002-.007-4.629-1.319a2.392 2.392 0 0 0 -3.023 2.293h-.001v13.798h.001a2.265 2.265 0 0 0 2.479 2.236v.001l1.878-.182v-14.431l5.376 13.891.002.016 4.094-.4.004.002v-.004l5.014-10.624v7.653h-.002l.001.098a5.53 5.53 0 0 1 -4.748 5.459l-12.947 1.262a4.095 4.095 0 0 1 -4.422-4.077v-15.412a4.437 4.437 0 0 1 5.775-4.228l15.3 4.359.001-.001a.816.816 0 0 0 1.063-.782.822.822 0 0 0 -.563-.779l-.002.006.002-.006-16.518-4.712a7.377 7.377 0 0 0 -2.582-.464c-4.078 0-7.395 3.316-7.4 7.394v15.805c0 3.75 3.053 6.801 6.806 6.801.191 0 .386-.008.575-.024v.001l14.806-1.438c.003 0 .007 0 .009-.002h.021v-.002a7.65 7.65 0 0 0 6.84-7.627c-.001-.047-.001-.098-.003-.146z" fill="#f86f11"/></svg>