<svg xmlns="http://www.w3.org/2000/svg" viewBox="0 0 16 16" fill="#000000" id="Threads-Logo--Streamline-Phosphor" height="16" width="16">
  <desc>
    Threads Logo Streamline Icon: https://streamlinehq.com
  </desc>
  <path d="M12.70446875 7.672075c-0.2617 -0.1969875 -0.5428375 -0.36673125 -0.83903125 -0.50658125 -0.3015375 -2.25325 -1.80923125 -2.96336875 -2.49523125 -3.17143125 -1.49110625 -0.45230625 -3.2046 0.08970625 -3.984075 1.258925 -0.25765625 0.3864875 -0.0003125 0.9069625 0.463225 0.93685625 0.21513125 0.013875 0.42131875 -0.088075 0.5409 -0.26744375 0.4802 -0.720675 1.6584625 -1.06744375 2.63016875 -0.7742 0.750075 0.22615625 1.26796875 0.7764625 1.519 1.583075 -0.37993125 -0.07233125 -0.765875 -0.108425 -1.15263125 -0.1078 -1.04935625 0 -2.03161875 0.27063125 -2.76435625 0.7613875 -0.8624 0.582725 -1.33731875 1.44436875 -1.33731875 2.42436875 0 1.5514125 1.1956 2.6776625 2.84275 2.6776625 0.9786125 -0.00666875 1.9128 -0.40944375 2.5894625 -1.11645 0.485475 -0.505075 1.05538125 -1.3840625 1.17675625 -2.79676875 0.02864375 0.0196 0.05578125 0.03995625 0.08291875 0.06030625 0.7621375 0.57594375 1.1481125 1.37728125 1.1481125 2.38140625 0 1.45944375 -1.533325 3.61845625 -4.82461875 3.61845625 -2.01503125 0 -3.42849375 -0.652075 -4.32255625 -1.99316875C3.24445625 11.543075 2.87280625 9.9796 2.87280625 8s0.37165 -3.543075 1.10514375 -4.640675c0.89405625 -1.34109375 2.30751875 -1.99316875 4.32255 -1.99316875 2.48241875 0 4.07076875 0.99884375 4.86456875 3.05458125 0.16195625 0.43508125 0.73416875 0.5316875 1.0299875 0.1738875 0.1403875 -0.16980625 0.177 -0.40265 0.09550625 -0.60735C13.32714375 1.48375625 11.255575 0.16 8.3005 0.16c-2.41230625 0 -4.2072125 0.85109375 -5.326675 2.52990625C2.10614375 3.9918 1.66665625 5.7776625 1.66665625 8s0.4394875 4.0082 1.30716875 5.31009375c1.1194625 1.6788125 2.91436875 2.52990625 5.326675 2.52990625 2.26681875 0 3.68630625 -0.86541875 4.47784375 -1.59061875 0.9724625 -0.89104375 1.552925 -2.103225 1.552925 -3.23399375 0 -1.38255625 -0.56236875 -2.53895625 -1.6268 -3.3433125Zm-2.856325 2.86461875c-0.4490125 0.4710125 -1.06955625 0.740225 -1.720275 0.74630625 -0.81490625 0 -1.6366 -0.45230625 -1.6366 -1.47150625 0 -0.95210625 0.90461875 -1.97583125 2.895525 -1.97583125 0.44834375 -0.0012125 0.89465625 0.0601875 1.3260125 0.18243125 0 1.0614125 -0.3015375 1.93135 -0.86465625 2.5163375Z" stroke-width="0.0625"></path>
</svg>