<svg xmlns="http://www.w3.org/2000/svg" viewBox="0 0 128 128" role="img" aria-label="tab-tab">
  <defs>
    <linearGradient id="bg" x1="20" y1="8" x2="108" y2="120" gradientUnits="userSpaceOnUse">
      <stop offset="0" stop-color="#0f7a65"/>
      <stop offset="1" stop-color="#10221c"/>
    </linearGradient>
    <linearGradient id="front" x1="34" y1="40" x2="98" y2="104" gradientUnits="userSpaceOnUse">
      <stop offset="0" stop-color="#fffefa"/>
      <stop offset="1" stop-color="#d8ede5"/>
    </linearGradient>
  </defs>
  <rect width="128" height="128" rx="28" fill="url(#bg)"/>
  <path d="M28 38c0-6.1 4.9-11 11-11h27c4.6 0 8.6 2.8 10.2 7.1l2.2 5.9H91c6.1 0 11 4.9 11 11v38c0 6.1-4.9 11-11 11H39c-6.1 0-11-4.9-11-11V38Z" fill="#1d3d33" opacity=".72"/>
  <path d="M22 31c0-6.1 4.9-11 11-11h27c4.6 0 8.6 2.8 10.2 7.1l2.2 5.9H85c6.1 0 11 4.9 11 11v38c0 6.1-4.9 11-11 11H33c-6.1 0-11-4.9-11-11V31Z" fill="url(#front)"/>
  <path d="M44 46h39v12H70v39H57V58H44V46Z" fill="#0d6d59"/>
  <path d="M34 34h31c2.6 0 4.9 1.6 5.8 4l2.3 6H34V34Z" fill="#68c19e"/>
  <circle cx="94" cy="35" r="8" fill="#e7b95d"/>
</svg>
